<svg xmlns="http://www.w3.org/2000/svg"><style>:root svg:not(:target){display:none}</style><svg viewBox="0 0 24 24" fill="none" id="burger"><path stroke="#000" stroke-width="2" d="M0 3h24m-24 8h24m-24 8h24"></path></svg><svg viewBox="0 0 50 53" fill="none" id="cat_back"><circle cx="25" cy="28" r="25" fill="#68B738"></circle><g clip-path="url(#cat_back_0)"><path d="M35.2 0h-.2c-.32.19-.59.47-.74.82a8.03 8.03 0 0 0-.67 1.76.84.84 0 0 1-.76.69 3.77 3.77 0 0 0-2.69 1.95c-.37.66-.69 1.35-.95 2.06-.73 1.9-1.29 3.85-1.98 5.77-.32.87-.34.87-1.32.87-1.16 0-1.08-.18-1.1 1.1 0 .41.13.62.56.6.13 0 .33-.07.39.1.05.18-.13.26-.23.36a4.63 4.63 0 0 1-2.23 1.26c-.97.26-1.97.47-2.92.79-2.45.82-4.7 1.96-6.46 3.9a14.44 14.44 0 0 0-2.44 4.04c-1.89 4.46-2.8 9.15-3.51 13.88a97.06 97.06 0 0 0-.75 6.7c-.1 1.1-.2 2.23-.2 3.35h17.14c.03-.23-.01-.46-.12-.66a2.58 2.58 0 0 0-1.97-1.58c-.36-.08-.4-.2-.18-.48.36-.48.64-1.02.82-1.6.84-2.47 1.16-5.06 1.57-7.62.23-1.96.83-3.85 1.77-5.59a11.13 11.13 0 0 1 2.87-3.28c.43-.32.45-.32.52.23.05.36.06.74.09 1.11a48.2 48.2 0 0 1-.1 7.31c-.2 1.88-.22 3.78-.07 5.67.2 2.2.59 4.36 1.16 6.49h6.84a2.8 2.8 0 0 0-2.18-2.29c-.64-.1-1.3-.07-1.93.1-.31.08-.44 0-.46-.33-.22-2.73-.04-5.47.51-8.16a91.8 91.8 0 0 0 1.57-9.37c.14-1.27.54-2.5 1.18-3.6.6-1.1 1.14-2.23 1.74-3.33a3.03 3.03 0 0 0 .22-2.67c-.14-.37-.27-.74-.44-1.1-.52-1-1.03-2-1.5-3-.26-.52-.2-.59.36-.6.84 0 .84 0 .86-.85v-.34c0-.35-.14-.55-.52-.51h-.78c-.36 0-.46-.15-.37-.52a3.22 3.22 0 0 1 2.64-2.28 11.3 11.3 0 0 1 3.4.22.51.51 0 0 0 .65-.33 40 40 0 0 1 .66-1.55.52.52 0 0 0-.05-.58c-1.65-2.1-3.43-4.05-5.87-5.3a.77.77 0 0 1-.45-.58 9.8 9.8 0 0 0-.65-2.14 1.8 1.8 0 0 0-.73-.89Z" fill="#000"></path></g><defs><clipPath id="cat_back_0"><path fill="#fff" transform="translate(7)" d="M0 0h36v50h-36z"></path></clipPath></defs></svg><svg viewBox="0 0 67 50" fill="none" id="cat_back_2"><circle cx="33" cy="25" r="25" fill="#68B738"></circle><g clip-path="url(#cat_back_2_0)"><path d="M60.56 13.88a7.6 7.6 0 0 1 2.25-2.3c.5-.35.8-.35 1.1.3.4.95.75 1.95.45 3a1.14 1.14 0 0 0 .2 1.05c.3.4.55.8.8 1.15a3.14 3.14 0 0 1 .45 3.1c-.18.5-.22 1.03-.1 1.55.1.5.1 1 0 1.5a1.87 1.87 0 0 1-1.35 1.6 2.6 2.6 0 0 0-1.6 1 .53.53 0 0 1-.45.25c-.6.1-2.1-1.25-2.1-1.85v-.3c.05-1.8-.05-1.95-1.7-2.7a2.2 2.2 0 0 1-.9-.6c-.3-.4-.7-.35-1.15-.2-.45.15-.7.45-.65.95.15 1.2.2 2.43.15 3.65 0 .14.04.27.1.4 1.55 2.25 2.15 4.9 2.9 7.45.6 1.95 1.7 3 3.7 3.15.32.02.64.07.95.15a2.08 2.08 0 0 1 1.7 1.6c.35 1.05.15 1.3-.9 1.3h-3.25c-.42.02-.83-.12-1.15-.4a5.86 5.86 0 0 0-1.7-1 3.63 3.63 0 0 1-1.7-1.3 14.3 14.3 0 0 0-2-2.25c-1.4-1.45-2.9-2.85-4.2-4.35a5.69 5.69 0 0 1-1.6-3.8c0-.45-.1-.65-.6-.45a.96.96 0 0 1-.5.15c-1.4 0-2.1.85-2.6 2.1-.45 1.05-1.05 2.05-1.6 3.1a5.2 5.2 0 0 0-.5 2.1c0 1.2.3 1.6 1.4 2 .7.25 1.35.5 1.7 1.2.4.8.3 1-.55 1.05h-3.4a.94.94 0 0 1-.95-.55l-.9-1.5a3.02 3.02 0 0 1-.35-2.7c.22-.87.23-1.78.05-2.65a4.21 4.21 0 0 1 .85-3.5c.3-.35.3-.5-.2-.6a25.03 25.03 0 0 1-5.95-2.1c-1.6-.6-1.9-.5-2.35 1.15-.4 1.4-.8 2.8-1.1 4.25-.35 1.6.05 3.1.55 4.6.2.6.8.55 1.25.7 1 .3 1.85.7 2.25 1.75.35.8.3.9-.55.9-.85 0-1.7-.05-2.6 0-.76.01-1.5-.23-2.1-.7-2.4-1.6-3.1-4.05-3.3-6.7-.1-1.65-1-2.95-2.05-4.2-.2-.25-.4-.35-.7-.15-1.07.59-2.2 1.1-3.35 1.5a13.36 13.36 0 0 0-6.1 4.4 5.32 5.32 0 0 0-1.1 2.55c-.15.9.1 1.3 1 1.55s1.35.75 1.45 1.7c.05.4-.1.6-.5.6h-4.05a.82.82 0 0 1-.65-.4 4.28 4.28 0 0 1-.95-2.75 25.3 25.3 0 0 1 .45-5.15 3.15 3.15 0 0 1 1.7-2.4c2.95-1.4 4.5-4.05 5.9-6.8.3-.55.05-.65-.45-.6-1.4.2-2.73.74-3.85 1.6a35.31 35.31 0 0 0-4.15 3.55 8.33 8.33 0 0 1-5.15 2.45c-3.65.2-5.35-1.85-5.2-5.15.03-1.13.46-2.2 1.2-3.05a2.13 2.13 0 0 1 2.25-.75c.75.2.95.6.65 1.35-.15.3-.35.55-.5.85-.22.3-.39.64-.5 1-.55 1.5.2 2.55 1.75 2.7 1.65.15 3-.55 4.25-1.55 1.5-1.2 2.85-2.6 4-4.15a10.4 10.4 0 0 1 7.2-4.05c1.15-.15 2.15-.65 3.25-.95a20.7 20.7 0 0 1 6.35-.9 6.5 6.5 0 0 0 2.9-.55c2.45-1 5-1 7.55-.5 2 .4 4 .9 5.95 1.4 1.16.21 2.35.18 3.5-.1 2.2-.56 4.44-.9 6.7-1a9.08 9.08 0 0 1 4.3.85c1 .45 1 .45.75 1.4Z" fill="#000"></path></g><defs><clipPath id="cat_back_2_0"><path fill="#fff" transform="translate(0 11)" d="M0 0h67v28h-67z"></path></clipPath></defs></svg><svg viewBox="0 0 20 20" fill="none" id="close_mobile"><path transform="matrix(.68659 -.72705 .68659 .72705 2.002 20)" stroke="#000" stroke-width="1.5" d="M0-.75h24.76"></path><path transform="matrix(.68659 .72705 -.68659 .72705 1 2)" stroke="#000" stroke-width="1.5" d="M0-.75h24.76"></path></svg><svg viewBox="0 0 101 18" fill="none" id="footer-logo2"><g clip-path="url(#footer-logo2_0)" fill="#111"><path d="M1.26 16.54a6.86 6.86 0 0 1-1.26-4.3v-6.4c-.1-1.54.3-3.08 1.19-4.38.86-1 2.2-1.46 4.18-1.46 1.98 0 3.24.46 4.03 1.3a5.42 5.42 0 0 1 1.19 3.78v1.54h-3.87v-1.77a3.7 3.7 0 0 0-.24-1.54 1.16 1.16 0 0 0-1.1-.62c-.56 0-.95.16-1.11.54a4.85 4.85 0 0 0-.24 1.7v8.22c-.04.56.07 1.12.32 1.62.15.38.55.54 1.1.54.56 0 .87-.16 1.03-.54.18-.52.26-1.07.24-1.62v-1.84h3.87v1.54a5.77 5.77 0 0 1-1.19 3.84c-.79.93-2.13 1.39-4.03 1.39-1.9-.08-3.32-.54-4.1-1.54Zm13.99-16.31h4.5l3.33 17.54h-3.64l-.63-3.7h-2.6l-.64 3.7h-3.72l3.4-17.54Zm3.24 11.54-.95-6.85-.94 6.85h1.9Zm7.35-8.62h-2.68v-2.92h9.4v2.85h-2.69v14.69h-4.03v-14.62Zm13.91-2.92h6.96v1.85h-4.5v5.77h3.63v1.77h-3.64v6.46h4.5v1.77h-7.03v-17.62h.08Zm9.01 0h1.74l5.14 11.62v-11.62h2.05v17.54h-1.58l-5.21-12v12h-2.14v-17.54Zm11.3 0h6.96v1.85h-4.5v5.77h3.63v1.77h-3.64v6.46h4.5v1.77h-6.95v-17.62Zm9.01 0h3.64c1.43-.1 2.85.28 4.03 1.08.87.69 1.26 1.92 1.26 3.54 0 2.23-.7 3.61-2.21 4.07l2.53 8.77h-2.45l-2.37-8.23h-1.98v8.23h-2.53v-17.46h.08Zm3.48 7.54c.81.06 1.63-.15 2.3-.62.47-.38.7-1.15.7-2.3a4.85 4.85 0 0 0-.23-1.7 2.04 2.04 0 0 0-.87-.92 3.69 3.69 0 0 0-1.74-.3h-1.1v5.76h.94v.08Zm8.61 8.69a7.61 7.61 0 0 1-1.1-4.46v-5.85c-.02-1.11.11-2.22.4-3.3.26-.81.78-1.51 1.5-2 .88-.51 1.9-.75 2.92-.7 1.66 0 2.84.39 3.55 1.23a5.77 5.77 0 0 1 1.11 3.85v.62h-2.37v-.54c0-.65-.05-1.29-.16-1.93-.06-.4-.3-.76-.63-1a2.5 2.5 0 0 0-1.5-.38 2.42 2.42 0 0 0-1.58.46 1.75 1.75 0 0 0-.63 1.23c-.1.69-.16 1.38-.16 2.08v6.54c-.06 1 .1 2 .47 2.92.32.62.95.85 1.9.85a1.96 1.96 0 0 0 1.9-.93c.41-.97.6-2.02.55-3.07v-1.23h-2.3v-1.77h4.59v8.69h-1.58l-.24-2c-.2.67-.64 1.25-1.22 1.66-.6.4-1.3.6-2.02.57a4.05 4.05 0 0 1-3.4-1.54Zm13.52-4.84-3.87-11.31h2.37l2.76 8.46 2.69-8.46h2.37l-3.87 11.3v6.16h-2.37v-6.15h-.08Z"></path></g><defs><clipPath id="footer-logo2_0"><path fill="#fff" d="M0 0h101v18h-101z"></path></clipPath></defs></svg><svg viewBox="0 0 25 30" fill="none" id="icon_eat"><path fill-rule="evenodd" clip-rule="evenodd" d="M18.62.08a1 1 0 0 1 1.09.21c.9.91 2.1 2.88 3.06 5.92a42.6 42.6 0 0 1 1.73 12.79 1 1 0 0 1-1 1h-3.5v9a1 1 0 1 1-2 0v-28a1 1 0 0 1 .62-.92Zm1.38 17.92h2.5a39.62 39.62 0 0 0-1.64-11.19 22.4 22.4 0 0 0-.86-2.3v13.49Zm-14-18a1 1 0 0 1 1 1v28a1 1 0 1 1-2 0v-28a1 1 0 0 1 1-1Z" fill="#fff"></path><path fill-rule="evenodd" clip-rule="evenodd" d="M1.5 0a1 1 0 0 1 1 1v5.5c0 .56.2 1.32.7 1.92.48.56 1.31 1.08 2.8 1.08a1 1 0 1 1 0 2 5.41 5.41 0 0 1-4.33-1.8 5.07 5.07 0 0 1-1.17-3.2v-5.5a1 1 0 0 1 1-1Z" fill="#fff"></path><path fill-rule="evenodd" clip-rule="evenodd" d="M10.5 0a1 1 0 0 0-1 1v5.5c0 .56-.2 1.32-.7 1.92-.48.56-1.31 1.08-2.8 1.08a1 1 0 0 0 0 2 5.4 5.4 0 0 0 4.33-1.8 5.07 5.07 0 0 0 1.17-3.2v-5.5a1 1 0 0 0-1-1Z" fill="#fff"></path></svg><svg viewBox="0 0 78 81" fill="none" id="icon_gift"><path d="M64.02 35.63h-49.99a3.18 3.18 0 0 1-3.18-3.16v-9.47a3.18 3.18 0 0 1 3.18-3.16h49.98a3.17 3.17 0 0 1 3.19 3.16v9.47a3.17 3.17 0 0 1-3.18 3.16Zm-49.99-13.37c-.4 0-.74.34-.74.74v9.47c0 .4.33.74.74.74h49.98c.41 0 .75-.33.75-.74v-9.47c0-.4-.34-.74-.75-.74h-49.98Z" fill="#fff"></path><path d="M57.04 68.08h-36.04a6.11 6.11 0 0 1-6.13-6.09v-27.57c0-.67.55-1.21 1.22-1.21.68 0 1.22.54 1.22 1.21v27.57a3.68 3.68 0 0 0 3.69 3.67h36.04a3.68 3.68 0 0 0 3.7-3.67v-27.57a1.22 1.22 0 0 1 2.44 0v27.57a6.11 6.11 0 0 1-6.14 6.1Z" fill="#fff"></path><path d="M39.02 68.08c-.67 0-1.22-.54-1.22-1.2v-32.46c0-.67.55-1.21 1.22-1.21.68 0 1.22.54 1.22 1.21v32.45c0 .67-.54 1.21-1.22 1.21Zm-15.21-45.82a7.81 7.81 0 0 1-3.17-10.6 7.9 7.9 0 0 1 10.66-3.16c5.82 3.13 8.96 11.86 9.09 12.23l-2.3.8c-.03-.08-2.96-8.22-7.95-10.9a5.45 5.45 0 0 0-7.36 2.17 5.4 5.4 0 0 0 2.2 7.33l-1.17 2.13Z" fill="#fff"></path><path d="m54.23 22.26-1.16-2.14a5.38 5.38 0 0 0-1.03-9.92 5.42 5.42 0 0 0-4.14.43c-4.98 2.68-7.91 10.82-7.94 10.9l-2.3-.8c.13-.37 3.27-9.1 9.08-12.23a7.86 7.86 0 0 1 11.29 9.1c-.6 2-1.95 3.66-3.8 4.66Zm7.72 29.6h-45.86c-.67 0-1.22-.55-1.22-1.21 0-.67.55-1.22 1.22-1.22h45.86a1.21 1.21 0 1 1 0 2.42Z" fill="#fff"></path></svg><svg viewBox="0 0 30 32" fill="none" id="icon_leaf"><g clip-path="url(#icon_leaf_0)"><path d="M27.78 2.77a.95.95 0 0 0-.92-.77c-4.94.03-16.95.92-21.8 8.38-2.51 3.88-2.73 8.91-.64 14.96l.07.13a25.93 25.93 0 0 0-1.04 3.32 1 1 0 0 0 .72 1.19l.2.02c.43 0 .82-.32.91-.79.02-.1 2.4-10.37 10.85-16.38.44-.3.55-.93.26-1.38a.9.9 0 0 0-1.3-.28c-4.78 3.4-7.73 8-9.47 11.65-1.24-4.57-.91-8.37.99-11.3 3.74-5.76 12.62-7.15 17.98-7.45-1.15 1.8-2.41 5.1-2.41 10.93 0 3.12-.83 5.52-2.47 7.14-2.62 2.6-6.88 2.83-10 2.58-.5-.04-.96.38-1 .93a.98.98 0 0 0 .87 1.07c.62.05 1.28.08 1.98.08 3.17 0 6.87-.66 9.43-3.2 2.03-2 3.06-4.9 3.06-8.6 0-9.1 3.22-11.1 3.23-11.1.4-.21.6-.68.5-1.13Z" fill="#fff"></path></g><defs><clipPath id="icon_leaf_0"><path fill="#fff" d="M0 0h30v32h-30z"></path></clipPath></defs></svg><svg viewBox="0 0 26 29" fill="none" id="icon_powder"><path d="M10.86 0c-1.63 0-2.9 1.37-2.9 3.1s1.27 3.1 2.9 3.1 2.9-1.37 2.9-3.1-1.27-3.1-2.9-3.1Zm0 1.19c1 0 1.72.84 1.72 1.91 0 1-.79 1.91-1.72 1.91-1 0-1.72-.84-1.72-1.91 0-1 .78-1.91 1.72-1.91Zm-10.86 23.7c0 1.19.4 2.19 1.36 3 1 .87 2.17.8 2.17.8h19c.78 0 1.82-.39 2.63-1.47.84-1 .79-2.37.79-2.37v-17.32c0-.44-.11-.6-.74-.6-.64 0-.7.27-.7.6v17.31a2.5 2.5 0 0 1-.73 1.74c-.74.63-1.45.54-1.45.54s-18.1 0-19-.02c-.35-.07-.91-.2-1.46-.92-.5-.72-.4-1.64-.4-1.64v-17.32c0-.46-.24-.64-.73-.64s-.74.18-.74.59v17.72Zm16.3-16.41c-1.1.24-2.18.38-4.26 2.37-2.08 2-3.62 1.91-5.16 1.82-1.54-.09-3.17-1.55-3.44-1.91-.34-.36-.9-.12-1.09.12-.15.23-.15.64.11 1 1.27 1.18 2.45 2.1 4.7 2.28a7.45 7.45 0 0 0 5.9-2.28c1.44-1.46 2.16-1.73 3.25-1.91a6.27 6.27 0 0 1 5.07 1.27c1 1.1 1.26.79 1.54.48.54-.72-.23-1.28-1.09-1.92a7.19 7.19 0 0 0-5.52-1.28l-.02-.04Zm-9.06 7.2c-1.18 0-2.08 1-2.08 2.28 0 1.28.9 2.28 2.08 2.28 1.18 0 2.08-1 2.08-2.28 0-1.28-.9-2.28-2.08-2.28Zm11.77.79c-1.54 0-2.8 1.36-2.8 3 0 1.65 1.26 3.01 2.8 3.01 1.54 0 2.8-1.36 2.8-3 0-1.65-1.26-3.01-2.8-3.01Zm0 1.45c.8 0 1.44.7 1.44 1.55 0 .87-.65 1.55-1.44 1.55-.8 0-1.45-.7-1.45-1.55 0-.86.65-1.55 1.45-1.55Z" fill="#fff"></path></svg><svg viewBox="0 0 26 32" fill="none" id="icon_time"><path d="M5.53 0c-1.06 0-1.06 1.6 0 1.6h6.64v1.6c-6.8.44-12.17 6.27-12.17 13.38 0 4.04 1.74 7.68 4.49 10.13.48.43.54 1.18.1 1.65l-1.52 1.56c-.75.7.36 1.76 1.03 1l2-2.04c.34-.34.86-.42 1.3-.21a12.6 12.6 0 0 0 11.05.06c.42-.21.96-.13 1.3.21l1.93 1.99c.68.64 1.65-.32 1.04-1l-1.45-1.5c-.44-.45-.38-1.2.11-1.64a13.54 13.54 0 0 0 4.59-10.22c0-7.11-5.4-12.95-12.21-13.36v-1.62h6.63c1.06 0 1.06-1.59 0-1.59h-14.86Zm-4.1 16.57c0-6.57 5.17-11.89 11.55-11.89 6.37 0 11.54 5.32 11.54 11.9s-5.17 11.9-11.54 11.9c-6.37 0-11.55-5.32-11.55-11.9Zm10.75-8.14c0-1.1 1.65-1.1 1.65 0v8.69a.85.85 0 0 1-.85.85.8.8 0 0 1-.8-.8v-8.74Zm-4.97 2.63a1.16 1.16 0 0 0 0-2.31 1.16 1.16 0 0 0 0 2.3v.01Zm11.54 0a1.16 1.16 0 0 0 0-2.31 1.16 1.16 0 0 0 0 2.3v.01Zm-10.38 12.67c0 1.54-2.32 1.54-2.32 0s2.32-1.54 2.32 0Zm4.61 3.46a1.16 1.16 0 1 0 .22-2.3 1.16 1.16 0 0 0-.22 2.3Zm-8.08-10.45a1.16 1.16 0 1 1-2.3.23 1.16 1.16 0 0 1 2.3-.23Zm17.3 1.16a1.16 1.16 0 1 0 .23-2.3 1.16 1.16 0 0 0-.22 2.3Zm-2.3 5.84c0 1.53-2.31 1.53-2.31 0 0-1.55 2.31-1.55 2.31 0Z" fill="#fff"></path></svg><svg viewBox="0 0 70 59" fill="none" id="logo-desktop"><path d="M59.7434 23.8063C58.0235 19.7092 55.2535 16.1318 51.7097 13.4305C48.1658 10.7293 43.9717 8.99857 39.5455 8.41088C35.1192 7.82319 30.6153 8.39905 26.4827 10.0811C22.35 11.7631 18.7329 14.4925 15.9918 17.9973C13.2507 21.5021 11.4814 25.6599 10.8601 30.0564C10.2388 34.4529 10.7873 38.9344 12.4509 43.0545C14.1145 47.1745 16.8351 50.7892 20.3416 53.5382C23.8482 56.2872 28.0181 58.0746 32.4359 58.7223C31.8572 56.6491 31.2685 54.3578 30.7497 51.9275C32.259 52.9009 33.8476 53.747 35.4989 54.457C35.4989 54.457 35.6186 56.5995 35.7782 58.9901C37.5624 59.0207 39.3448 58.8644 41.0961 58.5239C41.0508 58.2746 41.0508 58.0193 41.0961 57.77C41.3854 55.9151 42.1836 52.5723 42.3432 50.4198C43.4939 49.3498 44.47 48.1082 45.2366 46.7397L45.1767 47.1762C44.628 51.4018 43.4806 55.9151 42.7822 57.1649C42.5561 57.5786 42.2778 57.962 41.9541 58.3056C45.5656 57.4633 48.9497 55.8502 51.8717 53.5781C54.7937 51.3059 57.1837 48.4292 58.876 45.1473C60.5683 41.8653 61.5224 38.2568 61.6722 34.5717C61.822 30.8867 61.1638 27.2133 59.7434 23.8063ZM58.2768 27.5657C57.8378 27.9923 56.9299 28.2799 56.7802 26.9904C56.6305 25.7009 56.5906 24.7983 56.5906 24.7983C56.5906 24.7983 54.665 21.3959 53.9467 21.3563C53.2283 21.3166 48.13 24.7983 46.7831 26.3159C45.6157 27.5955 45.3863 27.5062 45.3863 29.7579C45.3863 31.4541 45.6058 37.862 45.486 42.7621L37.3546 44.9146C34.7988 45.6438 32.1997 46.2137 29.5724 46.6207L28.5747 40.8378H28.435L25.8709 27.774C25.8709 27.774 22.0696 26.3457 20.6728 25.9588C20.0169 25.6735 19.2926 25.5808 18.5855 25.6915C17.8783 25.8023 17.2178 26.1118 16.6819 26.5837C16.1352 27.0597 15.698 27.6471 15.4001 28.3061C15.1023 28.9651 14.9507 29.6802 14.9558 30.4027C15.1667 30.8637 15.3273 31.3459 15.4347 31.841C15.4846 32.3171 14.2375 32.2675 13.4393 32.2675C12.6411 32.2675 12.5214 30.8391 13.15 29.1627C13.6403 27.8737 14.2482 26.632 14.9658 25.4529C15.5056 24.3997 16.2018 23.4333 17.0311 22.5862C17.0311 22.5862 17.1708 22.249 18.2782 22.3482C19.3857 22.4474 25.5416 22.7747 25.5416 22.7747L25.5915 20.523C32.2826 19.6045 39.0309 19.1603 45.7853 19.1938C45.7853 19.7989 45.7853 20.404 45.7853 21.0091C48.3438 19.8483 51.0986 19.1754 53.9068 19.0252C54.057 19.0214 54.2059 19.0548 54.34 19.1223C54.474 19.1898 54.5892 19.2894 54.675 19.4121C55.0142 19.8386 57.0795 22.3879 57.319 22.7549C57.9896 23.7078 58.5995 24.7017 59.1448 25.7307C58.9579 26.3822 58.6646 26.9988 58.2768 27.5558V27.5657Z" fill="#FDC305"></path><path d="M56.3312 21.4951C56.8001 22.0903 57.2092 22.616 57.3289 22.7747C57.9996 23.7277 58.6094 24.7215 59.1547 25.7505C58.9649 26.3806 58.6753 26.9767 58.2967 27.5161C57.8577 27.9427 56.9498 28.2303 56.8001 26.9408C56.6505 25.6513 56.5906 24.7983 56.5906 24.7983C56.5906 24.7983 54.665 21.3959 53.9467 21.3563C53.2283 21.3166 48.13 24.7983 46.783 26.3159C45.6157 27.5955 45.3862 27.5062 45.3862 29.7579C45.3862 31.2458 45.5558 36.3542 45.5159 40.8973C47.3218 41.0957 49.9757 41.5916 50.7739 42.7621C50.7739 42.7621 50.4846 35.64 58.5661 39.3697C58.5661 39.3697 58.8455 29.6587 70 32.1485C66.2081 27.7223 61.5597 24.0994 56.3312 21.4951Z" fill="#F06351"></path><path d="M45.8252 19.1938C45.8658 13.6973 45.3982 8.2087 44.4284 2.79724C44.4284 2.79724 44.2788 1.50773 43.5604 2.55918C42.9676 3.81617 42.5642 5.15308 42.3631 6.5269C38.0981 6.25483 33.817 6.36771 29.5724 6.86415C28.7543 4.13635 27.3575 2.89643 26.689 3.22377C26.0205 3.55111 25.9407 6.4773 25.9407 6.4773L25.6115 20.523C32.3091 19.6036 39.0641 19.1594 45.8252 19.1938Z" fill="#F06351"></path><path d="M45.2458 46.7397C45.3755 45.6784 45.4453 44.2698 45.4852 42.7125L37.3542 44.865C34.7996 45.611 32.2006 46.1974 29.5724 46.6207L30.6798 51.5804C30.6798 51.6895 30.6798 51.7986 30.7496 51.9077C32.2589 52.8811 33.8474 53.7272 35.4985 54.4371C37.9116 53.2903 40.2099 51.9186 42.3625 50.3404V50.4C43.5079 49.3352 44.4805 48.1005 45.2458 46.7397Z" fill="#E55645"></path><path d="M31.927 16.0891C31.8771 15.9899 32.9247 16.7636 33.3337 17.0017C33.7428 17.2397 33.9423 17.4183 33.9423 17.5869C33.9423 17.7556 33.6829 17.9242 33.3238 17.9242C32.9646 17.9242 32.4059 17.8051 32.3261 17.6663C32.2463 17.5274 32.9247 17.6663 33.2639 17.6663H33.5532C32.939 17.2195 32.3915 16.6885 31.927 16.0891Z" fill="black"></path><path d="M39.4099 16.1982C39.4099 16.1982 38.4122 17.4679 38.3224 17.5274C38.2326 17.5869 38.1528 17.8647 38.512 17.8151C38.9243 17.7539 39.3312 17.661 39.7291 17.5373C39.8389 17.4778 39.799 17.3389 39.6094 17.3588C39.4199 17.3786 38.931 17.4084 38.6117 17.4679L39.4598 16.2081C39.4598 16.2081 39.4897 16.0891 39.4099 16.1982Z" fill="black"></path><path d="M36.277 22.2589C36.7395 22.0563 37.1217 21.7077 37.3645 21.267C37.6438 20.6123 37.3645 20.3643 36.9255 20.275C36.3216 20.1655 35.6983 20.2859 35.1796 20.6123C34.7905 20.9793 34.8404 21.3364 35.1796 21.6042C35.5166 21.867 35.8852 22.0869 36.277 22.2589Z" fill="black"></path><path d="M35.9177 23.5087C35.8031 23.7337 35.6475 23.9355 35.4587 24.1039C35.1746 24.3312 34.8253 24.4631 34.4611 24.4808C33.9118 24.5344 33.3626 24.3784 32.9247 24.0444C32.7236 23.9274 32.5446 23.7764 32.3959 23.598C32.2961 23.49 32.1734 23.4053 32.0367 23.35C32.0367 23.35 32.785 27.4269 34.6008 28.0815C36.4165 28.7362 36.7557 27.3277 36.8056 26.9507C36.8664 25.8218 36.5811 24.7011 35.9875 23.7369C35.9875 23.4393 35.9676 23.6377 35.9177 23.5087Z" fill="#F06351"></path><path d="M34.2216 24.6395C33.7547 24.5728 33.3063 24.4127 32.9033 24.1689C32.5004 23.9251 32.1513 23.6027 31.8771 23.2211C31.8526 23.1938 31.839 23.1585 31.839 23.1219C31.839 23.0853 31.8526 23.05 31.8771 23.0227C31.8901 23.0095 31.9056 22.999 31.9228 22.9919C31.9399 22.9847 31.9583 22.981 31.9769 22.981C31.9954 22.981 32.0138 22.9847 32.031 22.9919C32.0481 22.999 32.0636 23.0095 32.0766 23.0227C32.3235 23.3671 32.6367 23.6593 32.9981 23.8823C33.3595 24.1054 33.7618 24.2549 34.1817 24.3221C34.5139 24.2973 34.8355 24.1945 35.1199 24.022C35.4044 23.8496 35.6436 23.6125 35.8179 23.3302L35.9576 23.1417L36.0573 23.36C36.0573 23.36 36.4364 24.1138 37.055 24.1535C37.6736 24.1932 38.1125 23.7369 38.6812 22.8739C38.7024 22.8423 38.7353 22.8204 38.7727 22.813C38.8101 22.8055 38.849 22.8132 38.8807 22.8342C38.9125 22.8553 38.9345 22.888 38.942 22.9252C38.9495 22.9624 38.9418 23.001 38.9206 23.0326C38.2555 24.0047 37.627 24.4709 37.035 24.4312C36.8063 24.4011 36.5871 24.3204 36.3938 24.1951C36.2004 24.0698 36.0378 23.9031 35.9177 23.7071C35.7225 23.9781 35.4689 24.2025 35.1755 24.3638C34.8821 24.5251 34.5563 24.6193 34.2216 24.6395Z" fill="black"></path><path d="M36.1771 37.9909C38.2433 37.9909 39.9183 36.3255 39.9183 34.2712C39.9183 32.2168 38.2433 30.5514 36.1771 30.5514C34.1108 30.5514 32.4358 32.2168 32.4358 34.2712C32.4358 36.3255 34.1108 37.9909 36.1771 37.9909Z" fill="#FDC305"></path><path d="M41.1355 31.2458L38.0128 32.5452L39.1601 26.9607L31.6776 36.6419L34.8003 35.3425L33.653 40.937L41.1355 31.2458ZM33.7627 35.0449L37.913 29.6786L37.1049 33.6463L39.1003 32.8329L34.92 38.2092L35.7282 34.2414L33.7627 35.0449Z" fill="#111111"></path><path d="M32.3659 33.5868C32.983 33.5868 33.4833 33.0894 33.4833 32.4758C33.4833 31.8622 32.983 31.3648 32.3659 31.3648C31.7488 31.3648 31.2485 31.8622 31.2485 32.4758C31.2485 33.0894 31.7488 33.5868 32.3659 33.5868Z" fill="#111111"></path><path d="M38.871 37.614C39.3063 37.614 39.6592 37.2631 39.6592 36.8304C39.6592 36.3976 39.3063 36.0467 38.871 36.0467C38.4358 36.0467 38.0829 36.3976 38.0829 36.8304C38.0829 37.2631 38.4358 37.614 38.871 37.614Z" fill="#111111"></path><path d="M39.8288 35.4615C40.0216 35.4615 40.178 35.3061 40.178 35.1143C40.178 34.9226 40.0216 34.7672 39.8288 34.7672C39.6359 34.7672 39.4796 34.9226 39.4796 35.1143C39.4796 35.3061 39.6359 35.4615 39.8288 35.4615Z" fill="#111111"></path><path d="M45.7753 20.9892C43.9742 22.6034 42.278 24.3295 40.6969 26.1572C39.1219 27.9717 37.3445 29.6023 35.399 31.0177C35.1795 30.4919 33.7727 29.5099 33.7727 29.5099C33.7727 29.5099 30.6399 27.3773 28.5846 25.7009C27.4735 24.7809 26.4268 23.7867 25.4517 22.7251L23.4563 22.616C26.3368 26.7991 30.5566 29.8897 35.4289 31.3847C36.287 31.2458 38.7014 29.5298 40.5073 28.1311C42.6438 26.3247 44.6446 24.3654 46.4936 22.2688C46.9906 21.6816 47.376 21.0094 47.631 20.285C46.4936 20.6619 45.7753 20.9892 45.7753 20.9892Z" fill="#F06351"></path><path d="M65.0708 3.47176L56.6305 12.8356L55.4133 10.8616L63.5443 0L65.0708 3.47176Z" fill="#FDC305"></path><path d="M62.507 17.1207L68.0341 13.0439L67.2559 9.33406L61.8685 14.1052L62.507 17.1207Z" fill="#FDC305"></path><path d="M59.7833 48.9716L65.899 52.1259L68.902 49.8048L62.2276 47.077L59.7833 48.9716Z" fill="#FDC305"></path><path d="M1.94543 5.92182L5.00828 2.58894L14.2766 11.5163L13.0595 13.7779L1.94543 5.92182Z" fill="#FDC305"></path><path d="M7.36287 16.1486L2.67383 13.0439L0.279419 16.8827L5.41742 19.2633L7.36287 16.1486Z" fill="#FDC305"></path><path d="M13.878 52.1259L9.33862 55.4489L12.1321 59L16.1427 55.0124L13.878 52.1259Z" fill="#FDC305"></path><path d="M25.8708 27.774C25.8708 27.774 22.0695 26.3457 20.6727 25.9588C20.0169 25.6735 19.2926 25.5808 18.5855 25.6915C17.8783 25.8023 17.2178 26.1118 16.6819 26.5837C16.1351 27.0597 15.6979 27.6471 15.4001 28.3061C15.1022 28.9651 14.9507 29.6802 14.9558 30.4027C15.1667 30.8637 15.3273 31.3459 15.4347 31.841C15.4846 32.3171 14.2374 32.2675 13.4393 32.2675C12.6411 32.2675 12.5214 30.8391 13.1499 29.1627C13.6403 27.8737 14.2481 26.632 14.9658 25.4529C9.52821 28.27 0 34.7771 0 34.7771C2.72546 34.6137 5.46016 34.6933 8.17132 35.0151C13.4093 35.5409 13.1599 39.6474 13.1599 39.6474C15.0022 39.1425 16.8798 38.7745 18.7771 38.5464C20.8922 38.4075 21.0419 40.6493 21.0419 40.6493L21.5707 44.4781C22.3736 43.6145 23.2591 42.8305 24.2146 42.1372C25.4463 41.157 27.0145 40.6942 28.5846 40.8477L25.8708 27.774Z" fill="#F06351"></path></svg><svg viewBox="0 0 33 38" fill="none" id="logo-mobile"><g clip-path="url(#logo-mobile_0)"><path d="M6.01 20.93v-2.28c6.62-.93 13.3-1.37 19.98-1.34 0 .6 0 1.22-.06 1.84a24.9 24.9 0 0 1 5.94-1.84 16.77 16.77 0 0 0-6.77-8.29 16.25 16.25 0 0 0-19.92 2.08 16.95 16.95 0 0 0-5 9.5l5.83.33Zm20.97 3.55c-1.15 1.3-1.38 1.21-1.38 3.49v9.27a16.7 16.7 0 0 0 5.43-6.05 17.08 17.08 0 0 0 1.97-7.95 17.3 17.3 0 0 0-.32-3.13 32.86 32.86 0 0 0-5.7 4.37Zm-20.68 1.51s-3.75-1.46-5.14-1.85a8.33 8.33 0 0 0-1.16-.29c.1 2.92.96 5.76 2.46 8.24a16.63 16.63 0 0 0 6.14 5.91l-2.3-12.01Z" fill="#FDC305"></path><path d="M26.04 17.3a92.51 92.51 0 0 0-1.39-16.64s-.14-1.3-.88-.25c-.58 1.27-.98 2.6-1.19 3.99a68.3 68.3 0 0 0-12.65.34c-.78-2.72-2.16-3.98-2.82-3.73-.66.25-.71 3.34-.71 3.34l-.33 14.25a139.1 139.1 0 0 1 19.97-1.3Z" fill="#F06351"></path><path d="M12.3 14.15c0-.1.98.68 1.39.92.4.25.6.43.6.6 0 .17-.27.34-.62.34-.36 0-.9-.12-1-.27h1.23c-.6-.45-1.15-1-1.6-1.6Zm7.4.11-1.08 1.34c0 .06-.17.35.18.3.4-.06.81-.16 1.2-.29.11 0 .08-.2-.1-.17-.18.02-.69.05-1 .11l.84-1.27s.07-.13-.04-.02Zm-3.11 6.15c.46-.2.84-.56 1.08-1.01.28-.66 0-.92-.44-1.01-.6-.11-1.2.01-1.72.34-.39.37-.34.73-.05 1.01.35.27.73.5 1.13.67Z" fill="#000"></path><path d="M16.2 21.67a1.7 1.7 0 0 1-1.45.99 2.1 2.1 0 0 1-1.46-.43c-.2-.12-.37-.27-.52-.45-.1-.1-.22-.2-.36-.26 0 0 .74 4.14 2.54 4.8 1.8.66 2.12-.76 2.18-1.14a5.76 5.76 0 0 0-.8-3.27c-.03-.3-.04-.1-.14-.24Z" fill="#F06351"></path><path d="M14.57 22.82a3.36 3.36 0 0 1-2.35-1.53.14.14 0 0 1 .09-.13.14.14 0 0 1 .15.03c.5.7 1.25 1.17 2.09 1.31a2.04 2.04 0 0 0 1.61-1l.14-.2.1.21s.37.77 1 .8c.62.05 1.03-.4 1.59-1.28a.14.14 0 0 1 .2 0c.03.02.05.05.06.09 0 .03 0 .07-.02.1-.63 1.02-1.25 1.46-1.86 1.42a1.52 1.52 0 0 1-1.1-.77 2.25 2.25 0 0 1-1.7.95Z" fill="#000"></path><path d="M25.99 19.12a58.7 58.7 0 0 0-5.02 5.24 31.58 31.58 0 0 1-5.24 4.94c-.22-.53-1.6-1.52-1.6-1.52s-3.1-2.17-5.14-3.86a34.1 34.1 0 0 1-3.1-3.04l-1.98-.1a22.39 22.39 0 0 0 11.89 8.88c.85-.14 3.24-1.87 5.02-3.29a58.15 58.15 0 0 0 5.88-5.95c.5-.6.88-1.28 1.13-2.02-1.09.4-1.84.72-1.84.72Z" fill="#F06351"></path></g><defs><clipPath id="logo-mobile_0"><path fill="#fff" d="M0 0h33v38h-33z"></path></clipPath></defs></svg><svg viewBox="0 0 60 50" fill="none" id="logo-tablet"><path d="M51.2082 19.0509C49.734 15.4472 47.3597 12.3007 44.3221 9.92484C41.2845 7.54897 37.6896 6.02673 33.8957 5.50983C30.1017 4.99293 26.2413 5.49942 22.699 6.97882C19.1567 8.45823 16.0563 10.8589 13.7068 13.9415C11.3573 17.0242 9.84068 20.6812 9.30816 24.5481C8.77564 28.415 9.24578 32.3568 10.6717 35.9806C12.0977 39.6044 14.4296 42.7836 17.4352 45.2015C20.4408 47.6194 24.015 49.1915 27.8017 49.7611C27.3057 47.9377 26.8011 45.9223 26.3564 43.7848C27.6501 44.641 29.0118 45.3852 30.4271 46.0096C30.4271 46.0096 30.5298 47.8941 30.6666 49.9967C32.1959 50.0236 33.7237 49.8862 35.2247 49.5866C35.186 49.3674 35.186 49.1428 35.2247 48.9236C35.4727 47.2921 36.1569 44.3519 36.2937 42.4587C37.28 41.5176 38.1167 40.4256 38.7738 39.2219L38.7225 39.6058C38.2521 43.3224 37.2686 47.2921 36.67 48.3914C36.4762 48.7553 36.2377 49.0924 35.9602 49.3947C39.0558 48.6538 41.9564 47.235 44.461 45.2366C46.9656 43.2381 49.0141 40.7079 50.4647 37.8213C51.9152 34.9347 52.733 31.7607 52.8614 28.5196C52.9898 25.2784 52.4257 22.0475 51.2082 19.0509ZM49.9511 22.3575C49.5748 22.7326 48.7966 22.9856 48.6683 21.8514C48.54 20.7172 48.5058 19.9233 48.5058 19.9233C48.5058 19.9233 46.8553 16.9308 46.2396 16.8959C45.6238 16.861 41.2538 19.9233 40.0993 21.2582C39.0987 22.3836 38.9021 22.3051 38.9021 24.2856C38.9021 25.7775 39.0902 31.4135 38.9876 35.7234L32.0178 37.6166C29.8271 38.258 27.5993 38.7592 25.3473 39.1172L24.4921 34.0308H24.3724L22.1746 22.5407C22.1746 22.5407 18.9163 21.2843 17.719 20.9441C17.1569 20.6932 16.5361 20.6116 15.9299 20.709C15.3238 20.8064 14.7576 21.0787 14.2983 21.4937C13.8297 21.9123 13.4549 22.429 13.1996 23.0087C12.9443 23.5883 12.8144 24.2172 12.8188 24.8527C12.9996 25.2582 13.1372 25.6823 13.2293 26.1177C13.2721 26.5365 12.2031 26.4929 11.5189 26.4929C10.8348 26.4929 10.7322 25.2365 11.2709 23.7621C11.6912 22.6284 12.2122 21.5362 12.8274 20.4991C13.29 19.5728 13.8868 18.7228 14.5976 17.9778C14.5976 17.9778 14.7173 17.6811 15.6666 17.7684C16.6158 17.8556 21.8924 18.1435 21.8924 18.1435L21.9351 16.1631C27.6703 15.3552 33.4546 14.9645 39.2441 14.994C39.2441 15.5262 39.2441 16.0584 39.2441 16.5906C41.437 15.5696 43.7984 14.9777 46.2054 14.8457C46.3341 14.8423 46.4617 14.8717 46.5767 14.9311C46.6916 14.9905 46.7903 15.078 46.8638 15.1859C47.1546 15.5611 48.9249 17.8033 49.1301 18.1261C49.705 18.9642 50.2277 19.8384 50.6951 20.7434C50.5349 21.3165 50.2835 21.8588 49.9511 22.3487V22.3575Z" fill="#FDC305"></path><path d="M48.2839 17.0181C48.6859 17.5415 49.0365 18.0039 49.1391 18.1435C49.714 18.9817 50.2367 19.8558 50.7041 20.7609C50.5414 21.3151 50.2931 21.8393 49.9687 22.3138C49.5924 22.689 48.8142 22.942 48.6859 21.8078C48.5576 20.6736 48.5063 19.9233 48.5063 19.9233C48.5063 19.9233 46.8558 16.9308 46.24 16.8959C45.6243 16.861 41.2543 19.9233 40.0998 21.2582C39.0992 22.3836 38.9025 22.3051 38.9025 24.2856C38.9025 25.5942 39.0479 30.0874 39.0137 34.0832C40.5616 34.2577 42.8364 34.6939 43.5205 35.7234C43.5205 35.7234 43.2725 29.4592 50.1996 32.7396C50.1996 32.7396 50.439 24.1983 60 26.3882C56.7498 22.4952 52.7655 19.3086 48.2839 17.0181Z" fill="#F06351"></path><path d="M39.2788 14.994C39.3136 10.1595 38.9128 5.332 38.0815 0.572359C38.0815 0.572359 37.9533 -0.561827 37.3375 0.362971C36.8294 1.46856 36.4837 2.64443 36.3113 3.85277C32.6555 3.61347 28.986 3.71276 25.3478 4.14941C24.6465 1.75017 23.4493 0.659604 22.8763 0.947513C22.3033 1.23542 22.2349 3.80915 22.2349 3.80915L21.9527 16.1631C27.6936 15.3544 33.4836 14.9637 39.2788 14.994Z" fill="#F06351"></path><path d="M38.7821 39.2219C38.8933 38.2884 38.9531 37.0495 38.9874 35.6798L32.0179 37.573C29.8283 38.2291 27.6005 38.7449 25.3478 39.1172L26.297 43.4795C26.297 43.5755 26.297 43.6714 26.3569 43.7674C27.6505 44.6235 29.0121 45.3677 30.4273 45.9921C32.4957 44.9834 34.4656 43.777 36.3107 42.3889V42.4413C37.2925 41.5048 38.1262 40.4188 38.7821 39.2219Z" fill="#E55645"></path><path d="M27.366 12.2632C27.3233 12.176 28.2212 12.8565 28.5718 13.0659C28.9224 13.2752 29.0934 13.4323 29.0934 13.5806C29.0934 13.7289 28.8711 13.8772 28.5632 13.8772C28.2554 13.8772 27.7765 13.7725 27.7081 13.6504C27.6397 13.5282 28.2212 13.6504 28.5119 13.6504H28.7599C28.2334 13.2574 27.7642 12.7904 27.366 12.2632Z" fill="black"></path><path d="M33.7799 12.3592C33.7799 12.3592 32.9247 13.4759 32.8478 13.5283C32.7708 13.5806 32.7024 13.8249 33.0103 13.7813C33.3637 13.7274 33.7125 13.6458 34.0535 13.537C34.1476 13.4846 34.1134 13.3625 33.9509 13.3799C33.7884 13.3974 33.3694 13.4236 33.0958 13.4759L33.8227 12.3679C33.8227 12.3679 33.8483 12.2632 33.7799 12.3592Z" fill="black"></path><path d="M31.0946 17.6898C31.491 17.5117 31.8186 17.205 32.0267 16.8174C32.2661 16.2416 32.0267 16.0235 31.6504 15.9449C31.1328 15.8486 30.5986 15.9545 30.1539 16.2416C29.8204 16.5644 29.8632 16.8785 30.1539 17.114C30.4428 17.3451 30.7588 17.5386 31.0946 17.6898Z" fill="black"></path><path d="M30.7866 18.7891C30.6884 18.987 30.555 19.1645 30.3932 19.3126C30.1497 19.5125 29.8503 19.6286 29.5381 19.6441C29.0673 19.6913 28.5965 19.5541 28.2212 19.2603C28.0488 19.1574 27.8954 19.0245 27.7679 18.8677C27.6824 18.7726 27.5772 18.6981 27.4601 18.6495C27.4601 18.6495 28.1014 22.2353 29.6578 22.8111C31.2142 23.3869 31.5049 22.1481 31.5477 21.8165C31.5998 20.8236 31.3553 19.8379 30.8465 18.9898C30.8465 18.7281 30.8294 18.9026 30.7866 18.7891Z" fill="#F06351"></path><path d="M29.3328 19.7837C28.9326 19.725 28.5483 19.5842 28.2029 19.3698C27.8575 19.1554 27.5583 18.8718 27.3233 18.5361C27.3022 18.5121 27.2906 18.4811 27.2906 18.4489C27.2906 18.4167 27.3022 18.3856 27.3233 18.3616C27.3344 18.35 27.3477 18.3408 27.3624 18.3345C27.3771 18.3282 27.3928 18.325 27.4088 18.325C27.4247 18.325 27.4405 18.3282 27.4551 18.3345C27.4698 18.3408 27.4831 18.35 27.4943 18.3616C27.7059 18.6645 27.9744 18.9215 28.2841 19.1177C28.5939 19.3139 28.9387 19.4454 29.2986 19.5045C29.5834 19.4827 29.859 19.3922 30.1028 19.2406C30.3466 19.0889 30.5517 18.8804 30.7011 18.6321L30.8208 18.4663L30.9063 18.6583C30.9063 18.6583 31.2313 19.3213 31.7615 19.3562C32.2916 19.3911 32.6679 18.9898 33.1553 18.2308C33.1735 18.203 33.2017 18.1837 33.2338 18.1772C33.2659 18.1706 33.2992 18.1774 33.3264 18.1959C33.3536 18.2144 33.3725 18.2432 33.3789 18.2759C33.3853 18.3086 33.3787 18.3426 33.3606 18.3704C32.7905 19.2254 32.2517 19.6354 31.7444 19.6005C31.5482 19.574 31.3604 19.503 31.1947 19.3928C31.029 19.2826 30.8895 19.136 30.7866 18.9636C30.6193 19.202 30.402 19.3993 30.1505 19.5412C29.899 19.683 29.6197 19.7659 29.3328 19.7837Z" fill="black"></path><path d="M31.009 31.5269C32.78 31.5269 34.2158 30.0621 34.2158 28.2552C34.2158 26.4483 32.78 24.9835 31.009 24.9835C29.2379 24.9835 27.8022 26.4483 27.8022 28.2552C27.8022 30.0621 29.2379 31.5269 31.009 31.5269Z" fill="#FDC305"></path><path d="M35.259 25.5942L32.5824 26.7372L33.5658 21.8253L27.1522 30.3404L29.8288 29.1975L28.8454 34.1181L35.259 25.5942ZM28.9395 28.9357L32.4969 24.2158L31.8042 27.7056L33.5145 26.9902L29.9314 31.7188L30.6241 28.229L28.9395 28.9357Z" fill="#111111"></path><path d="M27.7422 27.6532C28.2712 27.6532 28.7 27.2157 28.7 26.6761C28.7 26.1364 28.2712 25.6989 27.7422 25.6989C27.2133 25.6989 26.7845 26.1364 26.7845 26.6761C26.7845 27.2157 27.2133 27.6532 27.7422 27.6532Z" fill="#111111"></path><path d="M33.3181 31.1954C33.6912 31.1954 33.9937 30.8868 33.9937 30.5061C33.9937 30.1255 33.6912 29.8169 33.3181 29.8169C32.945 29.8169 32.6425 30.1255 32.6425 30.5061C32.6425 30.8868 32.945 31.1954 33.3181 31.1954Z" fill="#111111"></path><path d="M34.1391 29.3022C34.3044 29.3022 34.4384 29.1654 34.4384 28.9968C34.4384 28.8282 34.3044 28.6914 34.1391 28.6914C33.9738 28.6914 33.8398 28.8282 33.8398 28.9968C33.8398 29.1654 33.9738 29.3022 34.1391 29.3022Z" fill="#111111"></path><path d="M39.236 16.5731C37.6923 17.9928 36.2384 19.511 34.8831 21.1186C33.5331 22.7145 32.0097 24.1487 30.3421 25.3936C30.1539 24.9312 28.9481 24.0675 28.9481 24.0675C28.9481 24.0675 26.2628 22.1917 24.5011 20.7172C23.5488 19.908 22.6516 19.0336 21.8158 18.0999L20.1055 18.0039C22.5744 21.6832 26.1915 24.4015 30.3677 25.7164C31.1032 25.5942 33.1727 24.0849 34.7206 22.8548C36.5519 21.2659 38.2669 19.5426 39.8518 17.6986C40.2778 17.1821 40.6081 16.5908 40.8267 15.9537C39.8518 16.2852 39.236 16.5731 39.236 16.5731Z" fill="#F06351"></path><path d="M22.175 22.5407C22.175 22.5407 18.9168 21.2843 17.7195 20.9441C17.1573 20.6932 16.5365 20.6116 15.9304 20.709C15.3243 20.8064 14.7581 21.0787 14.2987 21.4937C13.8301 21.9123 13.4554 22.429 13.2001 23.0087C12.9448 23.5883 12.8149 24.2172 12.8193 24.8527C13 25.2582 13.1377 25.6823 13.2298 26.1177C13.2725 26.5365 12.2035 26.4929 11.5194 26.4929C10.8352 26.4929 10.7326 25.2365 11.2714 23.7621C11.6917 22.6284 12.2127 21.5362 12.8278 20.4991C8.16705 22.9769 0 28.7002 0 28.7002C2.33611 28.5564 4.68014 28.6265 7.00399 28.9096C11.4937 29.372 11.2799 32.9839 11.2799 32.9839C12.8591 32.5398 14.4684 32.2161 16.0946 32.0155C17.9076 31.8933 18.0359 33.8651 18.0359 33.8651L18.4892 37.2327C19.1774 36.4731 19.9364 35.7835 20.7554 35.1738C21.8111 34.3116 23.1553 33.9046 24.5011 34.0396L22.175 22.5407Z" fill="#F06351"></path></svg><svg viewBox="0 0 27 34" fill="none" id="logo_html"><g clip-path="url(#logo_html_0)"><path d="m13.64.02-.14-.02-13.5 1.4v24.61l13.5 7.99 13.5-7.99v-24.6l-13.36-1.4Zm11.6 25-11.74 6.94-11.73-6.94v-10.1l11.68 6.93.02 1.25-8.02-4.75v1.23l8.04 4.8.02 1.3-8.05-4.76v1.22l8.04 4.81 8.12-4.83v-5.21l3.62-2.15v10.26Zm0-11.57-3.23 1.88-1.48.88-7.06-4.19-.01 1.23 6.04 3.57-.06.03-.13.07-.86.5-4.98-2.95-.01 1.22 3.93 2.33-.93.61-.02.01-2.97-1.74-.01 1.23 1.94 1.13-1.98 1.19-11.62-6.87 11.63-6.96 11.8 6.83Zm0-1.22-11.8-6.92-11.67 6.91v-9.23l11.73-1.23 11.73 1.23v9.24Z" fill="#666"></path></g><defs><clipPath id="logo_html_0"><path fill="#fff" d="M0 0h27v34h-27z"></path></clipPath></defs></svg><svg viewBox="0 0 30 30" fill="none" id="plus"><path stroke="#D3D3D3" stroke-width="2" d="M15 0v30m15-15h-30"></path></svg><svg viewBox="0 0 28 22" fill="none" id="telegram"><path fill-rule="evenodd" clip-rule="evenodd" d="M23.46 3.15c.18.15.27.38.23.61l-2.63 15.76a.66.66 0 0 1-1.01.44l-7.88-5.25a.66.66 0 0 1-.15-.96l2.61-3.26-4.36 2.9a.66.66 0 0 1-.65.05l-5.26-2.63a.66.66 0 0 1 .08-1.2l18.38-6.57a.66.66 0 0 1 .64.11Zm-17.13 7.17 3.53 1.77 7.56-5.04a.66.66 0 0 1 .88.96l-4.8 6 6.43 4.3 2.28-13.66-15.88 5.67Z" fill="#666"></path></svg><svg viewBox="0 0 28 22" fill="none" id="vkontakte"><path d="M1 5.34c0-.86.52-1.32 1.55-1.38l3.97.02c.26 0 .44.13.53.38.4 1.26.86 2.34 1.37 3.25.5.92 1.17 1.97 1.99 3.16.07.15.18.23.34.23.13 0 .22-.06.3-.18l.07-.28.03-4.35c0-.3-.07-.5-.23-.6-.15-.1-.43-.18-.83-.23-.32-.05-.48-.23-.48-.55 0-.07 0-.12.02-.15.38-1.09 1.44-1.63 3.2-1.63l1.5-.03c.67 0 1.23.16 1.67.48.44.32.67.82.67 1.5v5.72c.12.08.24.12.34.12.27 0 .5-.15.7-.45 1.95-2.58 3-4.31 3.17-5.18a.3.3 0 0 1 .05-.13c.12-.25.33-.47.61-.65.29-.19.53-.31.75-.38a.55.55 0 0 1 .24-.05h4.13l.26.03c.36 0 .63.16.83.47.07.1.12.21.15.33a2.4 2.4 0 0 1 .06.55v.18a6.11 6.11 0 0 1-.94 2.2 23.4 23.4 0 0 1-1.93 2.53c-.79.9-1.27 1.5-1.47 1.78a.93.93 0 0 0-.24.56c0 .13.07.28.21.45l3.9 4.63c.2.26.31.56.31.88 0 .38-.16.7-.48.95-.32.25-.7.4-1.14.43l-.46.02h-4.04c-.02 0-.06 0-.11.02a.86.86 0 0 1-.1.01c-.4 0-.76-.16-1.1-.48-.12-.13-.96-1.12-2.5-2.97a1.39 1.39 0 0 0-.38-.32 38.47 38.47 0 0 0-.53 2.24l-.08.42a1.4 1.4 0 0 1-1.12 1.06l-.37.02h-2.61c-1.48 0-2.95-.63-4.41-1.9a19.3 19.3 0 0 1-3.96-4.95 47.51 47.51 0 0 1-3.28-7.05 1.92 1.92 0 0 1-.13-.73Zm16.01 6.51c-.37 0-.7-.1-1.01-.29a.9.9 0 0 1-.45-.79v-5.78c0-.34-.1-.58-.27-.72-.18-.14-.49-.21-.93-.21l-1.52.05c-.76 0-1.34.12-1.73.37.78.36 1.17.93 1.17 1.71v4.43a1.5 1.5 0 0 1-.53 1.04 1.6 1.6 0 0 1-1.07.42c-.53 0-.94-.24-1.22-.73a26.16 26.16 0 0 1-3.1-5.63l-.23-.66-3.55-.02c-.23 0-.36.01-.38.03-.03.03-.04.1-.04.22 0 .15.01.3.05.48l.56 1.4c1.49 3.64 3.11 6.51 4.86 8.6 1.75 2.1 3.47 3.15 5.16 3.15h2.66c.1 0 .19-.03.24-.09.05-.06.1-.17.13-.34l.06-.25.5-2.21c.15-.3.27-.5.38-.6.2-.2.42-.28.69-.28.43 0 .86.24 1.3.73l2.27 2.71c.14.22.3.33.45.33h4.4c.53 0 .8-.13.8-.38a.47.47 0 0 0-.08-.25l-3.87-4.55c-.3-.35-.45-.73-.45-1.13 0-.4.14-.8.43-1.16.23-.34.68-.9 1.34-1.67.67-.78 1.25-1.51 1.75-2.19.5-.68.82-1.3.98-1.85l.08-.33a.37.37 0 0 1-.02-.16.54.54 0 0 0-.03-.19h-4.18c-.27.1-.48.25-.64.45l-.16.48c-.45 1.16-1.6 2.94-3.5 5.36-.36.33-.8.5-1.3.5Z" fill="#666"></path></svg><svg viewBox="0 0 28 22" fill="none" id="youtube"><path d="m17.85 10.8-5.24-3.5a.65.65 0 0 0-1.01.55v6.98a.65.65 0 0 0 1.01.54l5.24-3.49a.65.65 0 0 0 0-1.09Zm-4.94 2.8v-4.53l3.4 2.27-3.4 2.27Zm12.48-8.56a2.4 2.4 0 0 0-1.45-1.63c-3.72-1.43-9.69-1.41-9.94-1.41s-6.22-.02-9.94 1.4a2.4 2.4 0 0 0-1.45 1.64 25.32 25.32 0 0 0-.61 6.3c0 3.26.33 5.22.61 6.3a2.4 2.4 0 0 0 1.45 1.63c3.72 1.43 9.69 1.4 9.94 1.4h.08c.75 0 6.31-.04 9.86-1.4a2.4 2.4 0 0 0 1.45-1.64c.28-1.07.61-3.03.61-6.3 0-3.25-.33-5.22-.61-6.29Zm-1.27 12.27a1.1 1.1 0 0 1-.65.74c-3.5 1.34-9.4 1.32-9.47 1.32-.07 0-5.98.02-9.47-1.32a1.09 1.09 0 0 1-.65-.74c-.27-1-.57-2.85-.57-5.97 0-3.12.3-4.97.57-5.97a1.1 1.1 0 0 1 .65-.74c3.5-1.34 9.4-1.32 9.47-1.32.07 0 5.98-.02 9.47 1.32a1.1 1.1 0 0 1 .65.74c.27 1 .57 2.85.57 5.97 0 3.12-.3 4.96-.57 5.97Z" fill="#666"></path></svg></svg>